<?xml version="1.0" encoding="UTF-8"?>
<svg id="Layer_1" data-name="Layer 1" xmlns="http://www.w3.org/2000/svg" xmlns:xlink="http://www.w3.org/1999/xlink" version="1.1" viewBox="0 0 697.67 213.15">
  <defs>
    <style>
      .cls-1 {
        fill: url(#linear-gradient);
      }

      .cls-1, .cls-2, .cls-3, .cls-4, .cls-5, .cls-6, .cls-7, .cls-8, .cls-9, .cls-10, .cls-11, .cls-12, .cls-13, .cls-14, .cls-15, .cls-16, .cls-17, .cls-18, .cls-19, .cls-20, .cls-21, .cls-22, .cls-23, .cls-24, .cls-25, .cls-26, .cls-27, .cls-28, .cls-29, .cls-30, .cls-31, .cls-32, .cls-33, .cls-34, .cls-35, .cls-36, .cls-37, .cls-38, .cls-39, .cls-40, .cls-41, .cls-42, .cls-43, .cls-44, .cls-45, .cls-46, .cls-47, .cls-48, .cls-49, .cls-50, .cls-51, .cls-52, .cls-53, .cls-54, .cls-55, .cls-56, .cls-57, .cls-58, .cls-59, .cls-60, .cls-61, .cls-62, .cls-63, .cls-64, .cls-65, .cls-66 {
        stroke-width: 0px;
      }

      .cls-2 {
        fill: url(#radial-gradient);
      }

      .cls-3 {
        fill: url(#linear-gradient-38);
      }

      .cls-4 {
        fill: url(#linear-gradient-33);
      }

      .cls-5 {
        fill: url(#linear-gradient-29);
      }

      .cls-6 {
        fill: url(#linear-gradient-32);
      }

      .cls-7 {
        fill: url(#linear-gradient-30);
      }

      .cls-8 {
        fill: url(#linear-gradient-31);
      }

      .cls-9 {
        fill: url(#linear-gradient-36);
      }

      .cls-10 {
        fill: url(#linear-gradient-39);
      }

      .cls-11 {
        fill: url(#linear-gradient-34);
      }

      .cls-12 {
        fill: url(#linear-gradient-37);
      }

      .cls-13 {
        fill: url(#linear-gradient-35);
      }

      .cls-14 {
        fill: url(#linear-gradient-28);
      }

      .cls-15 {
        fill: url(#linear-gradient-25);
      }

      .cls-16 {
        fill: url(#linear-gradient-11);
      }

      .cls-17 {
        fill: url(#linear-gradient-12);
      }

      .cls-18 {
        fill: url(#linear-gradient-13);
      }

      .cls-19 {
        fill: url(#linear-gradient-10);
      }

      .cls-20 {
        fill: url(#linear-gradient-17);
      }

      .cls-21 {
        fill: url(#linear-gradient-16);
      }

      .cls-22 {
        fill: url(#linear-gradient-19);
      }

      .cls-23 {
        fill: url(#linear-gradient-15);
      }

      .cls-24 {
        fill: url(#linear-gradient-23);
      }

      .cls-25 {
        fill: url(#linear-gradient-21);
      }

      .cls-26 {
        fill: url(#linear-gradient-18);
      }

      .cls-27 {
        fill: url(#linear-gradient-14);
      }

      .cls-28 {
        fill: url(#linear-gradient-22);
      }

      .cls-29 {
        fill: url(#linear-gradient-20);
      }

      .cls-30 {
        fill: url(#linear-gradient-27);
      }

      .cls-31 {
        fill: url(#linear-gradient-24);
      }

      .cls-32 {
        fill: url(#linear-gradient-26);
      }

      .cls-33 {
        fill: url(#_Новый_образец_градиента_63-3);
      }

      .cls-34 {
        fill: url(#_Новый_образец_градиента_63-2);
      }

      .cls-35 {
        fill: url(#_Новый_образец_градиента_63-4);
      }

      .cls-36 {
        fill: url(#_Новый_образец_градиента_63-5);
      }

      .cls-37 {
        fill: url(#_Новый_образец_градиента_63-7);
      }

      .cls-38 {
        fill: url(#_Новый_образец_градиента_63-9);
      }

      .cls-39 {
        fill: url(#_Новый_образец_градиента_63-6);
      }

      .cls-40 {
        fill: url(#_Новый_образец_градиента_63-8);
      }

      .cls-41 {
        fill: url(#_Новый_образец_градиента_63-16);
      }

      .cls-42 {
        fill: url(#_Новый_образец_градиента_63-15);
      }

      .cls-43 {
        fill: url(#_Новый_образец_градиента_63-14);
      }

      .cls-44 {
        fill: url(#_Новый_образец_градиента_63-13);
      }

      .cls-45 {
        fill: url(#_Новый_образец_градиента_63-17);
      }

      .cls-46 {
        fill: url(#_Новый_образец_градиента_63-12);
      }

      .cls-47 {
        fill: url(#_Новый_образец_градиента_63-11);
      }

      .cls-48 {
        fill: url(#_Новый_образец_градиента_63-18);
      }

      .cls-49 {
        fill: url(#_Новый_образец_градиента_63-19);
      }

      .cls-50 {
        fill: url(#_Новый_образец_градиента_63-10);
      }

      .cls-51 {
        fill: url(#_Новый_образец_градиента_63-21);
      }

      .cls-52 {
        fill: url(#_Новый_образец_градиента_63-20);
      }

      .cls-53 {
        fill: url(#radial-gradient-2);
      }

      .cls-54 {
        fill: url(#radial-gradient-3);
      }

      .cls-55 {
        fill: url(#radial-gradient-4);
      }

      .cls-56 {
        fill: url(#radial-gradient-5);
      }

      .cls-57 {
        fill: url(#_Новый_образец_градиента_63);
      }

      .cls-58 {
        fill: url(#linear-gradient-4);
      }

      .cls-59 {
        fill: url(#linear-gradient-2);
      }

      .cls-60 {
        fill: url(#linear-gradient-3);
      }

      .cls-61 {
        fill: url(#linear-gradient-8);
      }

      .cls-62 {
        fill: url(#linear-gradient-9);
      }

      .cls-63 {
        fill: url(#linear-gradient-7);
      }

      .cls-64 {
        fill: url(#linear-gradient-5);
      }

      .cls-65 {
        fill: url(#linear-gradient-6);
      }

      .cls-66 {
        fill: #ccc;
      }
    </style>
    <linearGradient id="linear-gradient" x1="247.88" y1="3.4" x2="247.88" y2="175.59" gradientUnits="userSpaceOnUse">
      <stop offset=".31" stop-color="#0000c4"/>
      <stop offset=".69" stop-color="#0049e9"/>
    </linearGradient>
    <linearGradient id="linear-gradient-2" x1="247.88" y1="143.27" x2="247.88" y2="32.29" xlink:href="#linear-gradient"/>
    <linearGradient id="linear-gradient-3" x1="247.88" y1="46.51" x2="247.88" y2="120.11" xlink:href="#linear-gradient"/>
    <linearGradient id="linear-gradient-4" x1="287.34" y1="3.4" x2="287.34" y2="175.59" xlink:href="#linear-gradient"/>
    <linearGradient id="linear-gradient-5" x1="287.1" y1="143.27" x2="287.1" y2="32.29" xlink:href="#linear-gradient"/>
    <linearGradient id="linear-gradient-6" x1="286.86" y1="46.51" x2="286.86" y2="120.11" xlink:href="#linear-gradient"/>
    <linearGradient id="linear-gradient-7" x1="323.6" y1="3.4" x2="323.6" y2="175.59" xlink:href="#linear-gradient"/>
    <linearGradient id="linear-gradient-8" x1="323.6" y1="143.27" x2="323.6" y2="32.29" xlink:href="#linear-gradient"/>
    <linearGradient id="linear-gradient-9" x1="323.6" y1="46.51" x2="323.6" y2="120.11" xlink:href="#linear-gradient"/>
    <linearGradient id="linear-gradient-10" x1="361.78" y1="3.4" x2="361.78" y2="175.59" xlink:href="#linear-gradient"/>
    <linearGradient id="linear-gradient-11" x1="361.78" y1="143.27" x2="361.78" y2="32.29" xlink:href="#linear-gradient"/>
    <linearGradient id="linear-gradient-12" x1="361.78" y1="46.51" x2="361.78" y2="120.11" xlink:href="#linear-gradient"/>
    <linearGradient id="linear-gradient-13" x1="392.49" y1="3.4" x2="392.49" y2="175.59" xlink:href="#linear-gradient"/>
    <linearGradient id="linear-gradient-14" x1="392.49" y1="143.27" x2="392.49" y2="32.29" xlink:href="#linear-gradient"/>
    <linearGradient id="linear-gradient-15" x1="392.49" y1="46.51" x2="392.49" y2="120.11" xlink:href="#linear-gradient"/>
    <linearGradient id="linear-gradient-16" x1="441.36" y1="3.4" x2="441.36" y2="175.59" xlink:href="#linear-gradient"/>
    <linearGradient id="linear-gradient-17" x1="441.36" y1="143.27" x2="441.36" y2="32.29" xlink:href="#linear-gradient"/>
    <linearGradient id="linear-gradient-18" x1="441.36" y1="46.51" x2="441.36" y2="120.11" xlink:href="#linear-gradient"/>
    <linearGradient id="linear-gradient-19" x1="478.28" y1="3.4" x2="478.28" y2="175.59" xlink:href="#linear-gradient"/>
    <linearGradient id="linear-gradient-20" x1="478.28" y1="143.27" x2="478.28" y2="32.29" xlink:href="#linear-gradient"/>
    <linearGradient id="linear-gradient-21" x1="478.28" y1="46.51" x2="478.28" y2="120.11" xlink:href="#linear-gradient"/>
    <linearGradient id="linear-gradient-22" x1="511.34" y1="3.4" x2="511.34" y2="175.59" xlink:href="#linear-gradient"/>
    <linearGradient id="linear-gradient-23" x1="511.34" y1="143.27" x2="511.34" y2="32.29" xlink:href="#linear-gradient"/>
    <linearGradient id="linear-gradient-24" x1="511.34" y1="46.51" x2="511.34" y2="120.11" xlink:href="#linear-gradient"/>
    <linearGradient id="linear-gradient-25" x1="537.66" y1="3.4" x2="537.66" y2="175.59" xlink:href="#linear-gradient"/>
    <linearGradient id="linear-gradient-26" x1="537.66" y1="143.27" x2="537.66" y2="32.29" xlink:href="#linear-gradient"/>
    <linearGradient id="linear-gradient-27" x1="537.66" y1="46.51" x2="537.66" y2="120.11" xlink:href="#linear-gradient"/>
    <linearGradient id="linear-gradient-28" x1="567.77" y1="3.4" x2="567.77" y2="175.59" xlink:href="#linear-gradient"/>
    <linearGradient id="linear-gradient-29" x1="567.77" y1="143.27" x2="567.77" y2="32.29" xlink:href="#linear-gradient"/>
    <linearGradient id="linear-gradient-30" x1="567.77" y1="46.51" x2="567.77" y2="120.11" xlink:href="#linear-gradient"/>
    <linearGradient id="linear-gradient-31" x1="605.95" y1="3.4" x2="605.95" y2="175.59" xlink:href="#linear-gradient"/>
    <linearGradient id="linear-gradient-32" x1="605.95" y1="143.27" x2="605.95" y2="32.29" xlink:href="#linear-gradient"/>
    <linearGradient id="linear-gradient-33" x1="605.95" y1="46.51" x2="605.95" y2="120.11" xlink:href="#linear-gradient"/>
    <linearGradient id="linear-gradient-34" x1="644.65" y1="3.4" x2="644.65" y2="175.59" xlink:href="#linear-gradient"/>
    <linearGradient id="linear-gradient-35" x1="644.65" y1="143.27" x2="644.65" y2="32.29" xlink:href="#linear-gradient"/>
    <linearGradient id="linear-gradient-36" x1="644.65" y1="46.51" x2="644.65" y2="120.11" xlink:href="#linear-gradient"/>
    <linearGradient id="linear-gradient-37" x1="681.48" y1="3.4" x2="681.48" y2="175.59" xlink:href="#linear-gradient"/>
    <linearGradient id="linear-gradient-38" x1="681.48" y1="143.27" x2="681.48" y2="32.29" xlink:href="#linear-gradient"/>
    <linearGradient id="linear-gradient-39" x1="681.48" y1="46.51" x2="681.48" y2="120.11" xlink:href="#linear-gradient"/>
    <linearGradient id="_Новый_образец_градиента_63" data-name="Новый образец градиента 63" x1="235.79" y1="189.59" x2="235.79" y2="152.39" gradientUnits="userSpaceOnUse">
      <stop offset="0" stop-color="#dbd8d8"/>
      <stop offset="0" stop-color="#d4d2d0"/>
      <stop offset=".06" stop-color="#c5c3c3"/>
      <stop offset=".19" stop-color="#9e9da2"/>
      <stop offset=".26" stop-color="#84838c"/>
      <stop offset=".52" stop-color="#edeeef"/>
      <stop offset=".59" stop-color="#dedfe0"/>
      <stop offset=".71" stop-color="#b8b8bb"/>
      <stop offset=".88" stop-color="#7d7c81"/>
      <stop offset="1" stop-color="#c5cbce"/>
      <stop offset="1" stop-color="#9aa0a9"/>
    </linearGradient>
    <linearGradient id="_Новый_образец_градиента_63-2" data-name="Новый образец градиента 63" x1="259.75" y1="189.59" x2="259.75" y2="152.39" xlink:href="#_Новый_образец_градиента_63"/>
    <linearGradient id="_Новый_образец_градиента_63-3" data-name="Новый образец градиента 63" x1="283.93" y1="189.59" x2="283.93" y2="152.39" xlink:href="#_Новый_образец_градиента_63"/>
    <linearGradient id="_Новый_образец_градиента_63-4" data-name="Новый образец градиента 63" x1="308.85" y1="189.59" x2="308.85" y2="152.39" xlink:href="#_Новый_образец_градиента_63"/>
    <linearGradient id="_Новый_образец_градиента_63-5" data-name="Новый образец градиента 63" x1="330.49" y1="189.59" x2="330.49" y2="152.39" xlink:href="#_Новый_образец_градиента_63"/>
    <linearGradient id="_Новый_образец_градиента_63-6" data-name="Новый образец градиента 63" x1="349.52" y1="189.59" x2="349.52" y2="152.39" xlink:href="#_Новый_образец_градиента_63"/>
    <linearGradient id="_Новый_образец_градиента_63-7" data-name="Новый образец градиента 63" x1="370.56" y1="189.59" x2="370.56" y2="152.39" xlink:href="#_Новый_образец_градиента_63"/>
    <linearGradient id="_Новый_образец_градиента_63-8" data-name="Новый образец градиента 63" x1="395.98" y1="189.59" x2="395.98" y2="152.39" xlink:href="#_Новый_образец_градиента_63"/>
    <linearGradient id="_Новый_образец_градиента_63-9" data-name="Новый образец градиента 63" x1="437.41" y1="189.59" x2="437.41" y2="152.39" xlink:href="#_Новый_образец_градиента_63"/>
    <linearGradient id="_Новый_образец_градиента_63-10" data-name="Новый образец градиента 63" x1="477.92" y1="189.59" x2="477.92" y2="152.39" xlink:href="#_Новый_образец_градиента_63"/>
    <linearGradient id="_Новый_образец_градиента_63-11" data-name="Новый образец градиента 63" x1="502.8" y1="189.59" x2="502.8" y2="152.39" xlink:href="#_Новый_образец_градиента_63"/>
    <linearGradient id="_Новый_образец_градиента_63-12" data-name="Новый образец градиента 63" x1="528.23" y1="189.59" x2="528.23" y2="152.39" xlink:href="#_Новый_образец_градиента_63"/>
    <linearGradient id="_Новый_образец_градиента_63-13" data-name="Новый образец градиента 63" x1="553.65" y1="189.59" x2="553.65" y2="152.39" xlink:href="#_Новый_образец_градиента_63"/>
    <linearGradient id="_Новый_образец_градиента_63-14" data-name="Новый образец градиента 63" x1="578.89" y1="189.59" x2="578.89" y2="152.39" xlink:href="#_Новый_образец_градиента_63"/>
    <linearGradient id="_Новый_образец_градиента_63-15" data-name="Новый образец градиента 63" x1="603.78" y1="189.59" x2="603.78" y2="152.39" xlink:href="#_Новый_образец_градиента_63"/>
    <linearGradient id="_Новый_образец_градиента_63-16" data-name="Новый образец градиента 63" x1="623.74" y1="189.59" x2="623.74" y2="152.39" xlink:href="#_Новый_образец_градиента_63"/>
    <linearGradient id="_Новый_образец_градиента_63-17" data-name="Новый образец градиента 63" x1="643.31" y1="189.59" x2="643.31" y2="152.39" xlink:href="#_Новый_образец_градиента_63"/>
    <linearGradient id="_Новый_образец_градиента_63-18" data-name="Новый образец градиента 63" x1="664.35" y1="189.59" x2="664.35" y2="152.39" xlink:href="#_Новый_образец_градиента_63"/>
    <linearGradient id="_Новый_образец_градиента_63-19" data-name="Новый образец градиента 63" x1="689.77" y1="189.59" x2="689.77" y2="152.39" xlink:href="#_Новый_образец_градиента_63"/>
    <linearGradient id="_Новый_образец_градиента_63-20" data-name="Новый образец градиента 63" x1="229.76" y1="106.58" x2="-50.98" y2="106.58" xlink:href="#_Новый_образец_градиента_63"/>
    <linearGradient id="_Новый_образец_градиента_63-21" data-name="Новый образец градиента 63" x1="229.76" y1="77.18" x2="-50.98" y2="77.18" xlink:href="#_Новый_образец_градиента_63"/>
    <radialGradient id="radial-gradient" cx="114.38" cy="36.07" fx="114.38" fy="36.07" r="202.83" gradientUnits="userSpaceOnUse">
      <stop offset=".31" stop-color="#0000c4"/>
      <stop offset=".69" stop-color="#0049e9"/>
    </radialGradient>
    <radialGradient id="radial-gradient-2" cx="210.15" cy="168.03" fx="210.15" fy="168.03" r="136.84" xlink:href="#radial-gradient"/>
    <radialGradient id="radial-gradient-3" cx="74.04" cy="71.39" fx="74.04" fy="71.39" r="116.67" xlink:href="#radial-gradient"/>
    <radialGradient id="radial-gradient-4" cx="114.38" cy="36.07" fx="114.38" fy="36.07" r="202.83" xlink:href="#radial-gradient"/>
    <radialGradient id="radial-gradient-5" cx="210.15" cy="168.03" fx="210.15" fy="168.03" r="136.84" xlink:href="#radial-gradient"/>
  </defs>
  <g>
    <g>
      <path class="cls-1" d="M245.05,112.84l-1.94,27.42h-12.11l2.95-39.65,6.4-71.39h15.06l6.4,71.27,2.95,39.78h-12.11l-1.95-27.42h-5.65ZM250.07,102.86l-2.2-53.01-2.2,53.01h4.39Z"/>
      <path class="cls-59" d="M254.51,138.25l-1.95-27.42h-9.37l-1.94,27.42h-8.09l2.79-37.5,6.23-69.54h11.4l6.24,69.45,2.79,37.6h-8.09ZM245.88,49.77l-2.28,55.1h8.56l-2.28-55.1h-4Z"/>
      <path class="cls-60" d="M256.37,136.25l-1.95-27.42h-13.1l-1.94,27.42h-4.07l2.63-35.35,6.07-67.69h7.74l6.07,67.62,2.63,35.42h-4.07ZM241.51,106.86h12.73l-2.45-59.1h-7.83l-2.45,59.1Z"/>
      <path class="cls-58" d="M290.98,84.73l11.98,55.52h-12.74l-6.46-42.6v42.6h-12.05V29.21h12.05v43.29l6.46-43.29h12.74l-11.98,55.52Z"/>
      <polygon class="cls-64" points="291.95 138.25 285.74 97.36 281.76 97.65 281.76 138.25 273.72 138.25 273.72 31.21 281.76 31.21 281.76 72.5 285.74 72.79 291.95 31.21 300.48 31.21 288.93 84.73 300.48 138.25 291.95 138.25"/>
      <polygon class="cls-65" points="293.66 136.25 287.44 95.22 279.76 95.8 279.76 136.25 275.72 136.25 275.72 33.21 279.76 33.21 279.76 74.36 287.45 74.92 293.67 33.21 298.01 33.21 286.89 84.73 298.01 136.25 293.66 136.25"/>
      <path class="cls-63" d="M320.78,112.84l-1.94,27.42h-12.11l2.95-39.65,6.4-71.39h15.06l6.4,71.27,2.95,39.78h-12.11l-1.95-27.42h-5.65ZM325.8,102.86l-2.2-53.01-2.2,53.01h4.39Z"/>
      <path class="cls-61" d="M330.23,138.25l-1.95-27.42h-9.37l-1.94,27.42h-8.09l2.79-37.5,6.23-69.54h11.4l6.24,69.45,2.79,37.6h-8.09ZM321.6,49.77l-2.28,55.1h8.56l-2.28-55.1h-4Z"/>
      <path class="cls-62" d="M332.1,136.25l-1.95-27.42h-13.1l-1.94,27.42h-4.07l2.63-35.35,6.07-67.69h7.74l6.07,67.62,2.63,35.42h-4.07ZM317.24,106.86h12.73l-2.45-59.1h-7.83l-2.45,59.1Z"/>
      <path class="cls-19" d="M364.07,79.71V29.21h12.05v111.04h-12.05v-50.57h-4.58v50.57h-12.05V29.21h12.05v50.5h4.58Z"/>
      <polygon class="cls-16" points="366.07 138.25 366.07 87.69 357.49 87.69 357.49 138.25 349.44 138.25 349.44 31.21 357.49 31.21 357.49 81.71 366.07 81.71 366.07 31.21 374.11 31.21 374.11 138.25 366.07 138.25"/>
      <polygon class="cls-17" points="368.07 136.25 368.07 85.69 355.49 85.69 355.49 136.25 351.44 136.25 351.44 33.21 355.49 33.21 355.49 83.71 368.07 83.71 368.07 33.21 372.11 33.21 372.11 136.25 368.07 136.25"/>
      <path class="cls-18" d="M386.46,29.21h12.04v111.04h-12.04V29.21Z"/>
      <rect class="cls-27" x="388.46" y="31.21" width="8.04" height="107.04"/>
      <rect class="cls-23" x="390.46" y="33.21" width="4.04" height="103.04"/>
      <path class="cls-21" d="M438.53,112.84l-1.94,27.42h-12.11l2.95-39.65,6.4-71.39h15.06l6.4,71.27,2.95,39.78h-12.11l-1.95-27.42h-5.65ZM443.55,102.86l-2.2-53.01-2.2,53.01h4.39Z"/>
      <path class="cls-20" d="M447.99,138.25l-1.95-27.42h-9.37l-1.94,27.42h-8.09l2.79-37.5,6.23-69.54h11.4l6.24,69.45,2.79,37.6h-8.09ZM439.36,49.77l-2.28,55.1h8.56l-2.28-55.1h-4Z"/>
      <path class="cls-26" d="M449.85,136.25l-1.95-27.42h-13.1l-1.94,27.42h-4.07l2.63-35.35,6.07-67.69h7.74l6.07,67.62,2.63,35.42h-4.07ZM434.99,106.86h12.73l-2.45-59.1h-7.83l-2.45,59.1Z"/>
      <path class="cls-22" d="M465.2,140.25V29.21h12.05v101.07h14.12v9.98h-26.16Z"/>
      <polygon class="cls-29" points="467.2 138.25 467.2 31.21 475.24 31.21 475.24 132.28 489.36 132.28 489.36 138.25 467.2 138.25"/>
      <polygon class="cls-25" points="469.2 136.25 469.2 33.21 473.24 33.21 473.24 134.28 487.36 134.28 487.36 136.25 469.2 136.25"/>
      <path class="cls-28" d="M498.26,140.25V29.21h12.05v101.07h14.12v9.98h-26.16Z"/>
      <polygon class="cls-24" points="500.26 138.25 500.26 31.21 508.3 31.21 508.3 132.28 522.42 132.28 522.42 138.25 500.26 138.25"/>
      <polygon class="cls-31" points="502.26 136.25 502.26 33.21 506.3 33.21 506.3 134.28 520.42 134.28 520.42 136.25 502.26 136.25"/>
      <path class="cls-15" d="M531.63,29.21h12.04v111.04h-12.04V29.21Z"/>
      <rect class="cls-32" x="533.63" y="31.21" width="8.04" height="107.04"/>
      <rect class="cls-30" x="535.63" y="33.21" width="4.04" height="103.04"/>
      <path class="cls-14" d="M564.95,112.84l-1.94,27.42h-12.11l2.95-39.65,6.4-71.39h15.06l6.4,71.27,2.95,39.78h-12.11l-1.95-27.42h-5.65ZM569.97,102.86l-2.2-53.01-2.2,53.01h4.39Z"/>
      <path class="cls-5" d="M574.4,138.25l-1.95-27.42h-9.37l-1.94,27.42h-8.09l2.79-37.5,6.23-69.54h11.4l6.24,69.45,2.79,37.6h-8.09ZM565.77,49.77l-2.28,55.1h8.56l-2.28-55.1h-4Z"/>
      <path class="cls-7" d="M576.27,136.25l-1.95-27.42h-13.1l-1.94,27.42h-4.07l2.63-35.35,6.07-67.69h7.74l6.07,67.62,2.63,35.42h-4.07ZM561.41,106.86h12.73l-2.45-59.1h-7.83l-2.45,59.1Z"/>
      <path class="cls-8" d="M608.61,29.21h11.67v111.04h-9.22l-8.09-54.27v54.27h-11.36V29.21h9.29l7.72,53.76V29.21Z"/>
      <polygon class="cls-6" points="612.78 138.25 604.94 85.69 600.97 85.99 600.97 138.25 593.61 138.25 593.61 31.21 599.16 31.21 606.63 83.26 610.61 82.97 610.61 31.21 618.28 31.21 618.28 138.25 612.78 138.25"/>
      <path class="cls-4" d="M614.51,136.25l-7.61-51.01,5.71-.41v-51.63h3.67v103.04h-1.78ZM595.61,136.25V33.21h1.82l7.25,50.5-5.71.42v52.12h-3.36Z"/>
      <path class="cls-11" d="M646.94,67.42v-26.54c0-1.71-.75-2.57-2.26-2.57h-.06c-1.51,0-2.26.86-2.26,2.57v88.02c0,1.76.75,2.63,2.26,2.63s2.32-.88,2.32-2.63v-26.47h12.05v26.47c0,8.37-4.79,12.57-14.37,12.61-9.54,0-14.3-4.2-14.3-12.61V40.88c0-8.37,4.77-12.55,14.3-12.55s14.37,4.18,14.37,12.55v26.54h-12.05Z"/>
      <path class="cls-13" d="M644.62,139.51c-8.39,0-12.3-3.37-12.3-10.61V40.88c0-7.2,3.91-10.55,12.3-10.55s12.37,3.35,12.37,10.55v24.54h-8.05v-24.54c0-2.82-1.63-4.57-4.26-4.57s-4.32,1.75-4.32,4.57v88.02c0,3.42,2.2,4.63,4.26,4.63,2.67,0,4.32-1.78,4.32-4.63v-24.47h8.05v24.47c0,7.2-3.93,10.57-12.37,10.61Z"/>
      <path class="cls-9" d="M644.61,137.51c-7.31,0-10.29-2.5-10.29-8.61V40.88c0-6.07,2.99-8.55,10.3-8.55s10.37,2.48,10.37,8.55v22.54h-4.05v-22.54c0-3.93-2.51-6.57-6.26-6.57s-6.32,2.64-6.32,6.57v88.02c0,4.58,3.14,6.63,6.26,6.63,3.78,0,6.32-2.67,6.32-6.63v-22.47h4.05v22.47c0,6.08-3.01,8.58-10.38,8.61Z"/>
      <path class="cls-12" d="M668.4,29.21h26.16v9.91h-14.12v40.59h12.17v9.98h-12.17v40.59h14.12v9.98h-26.16V29.21Z"/>
      <polygon class="cls-3" points="670.4 138.25 670.4 31.21 692.56 31.21 692.56 37.12 678.45 37.12 678.45 81.71 690.62 81.71 690.62 87.69 678.45 87.69 678.45 132.28 692.56 132.28 692.56 138.25 670.4 138.25"/>
      <polygon class="cls-10" points="672.4 136.25 672.4 33.21 690.56 33.21 690.56 35.12 676.45 35.12 676.45 83.71 688.62 83.71 688.62 85.69 676.45 85.69 676.45 134.28 690.56 134.28 690.56 136.25 672.4 136.25"/>
    </g>
    <g>
      <path class="cls-66" d="M227.89,158.53c0-4.63,2.63-6.95,7.88-6.95s7.9,2.32,7.9,6.95v4.57h-6.09v-4.57c0-1.21-.6-1.82-1.79-1.83h-.04c-1.18,0-1.78.61-1.78,1.83v2.85c0,1.32,1.56,2.96,4.68,4.94,3.34,2.08,5.01,4.6,5.01,7.54v3.99c0,4.65-2.63,6.97-7.89,6.97-5.27-.01-7.9-2.33-7.9-6.97v-4.57h6.09v4.57c0,1.21.6,1.81,1.81,1.81s1.79-.6,1.79-1.81v-3.6c0-1.43-1.56-3.13-4.68-5.1-3.34-2.1-5.01-4.65-5.01-7.65v-2.96Z"/>
      <path class="cls-57" d="M235.8,182.82c-5.19-.01-5.91-2.4-5.91-4.97v-2.57h2.09v2.57c0,2.32,1.5,3.81,3.81,3.81s3.79-1.5,3.79-3.81v-3.6c0-2.21-1.78-4.37-5.61-6.79-2.75-1.73-4.08-3.67-4.08-5.96v-2.96c0-2.57.71-4.95,5.88-4.95s5.9,2.38,5.9,4.95v2.57h-2.09v-2.57c0-2.3-1.48-3.81-3.77-3.83-2.35,0-3.83,1.5-3.83,3.83v2.85c0,2.13,1.73,4.17,5.61,6.63,2.75,1.72,4.08,3.63,4.08,5.85v3.99c0,2.58-.71,4.97-5.88,4.97h0Z"/>
      <path class="cls-66" d="M267.64,152v5.14h-4.85v27.1h-6.09v-27.1h-4.85v-5.14h15.79Z"/>
      <polygon class="cls-34" points="258.7 182.24 258.7 155.14 253.85 155.14 253.85 154 265.64 154 265.64 155.14 260.8 155.14 260.8 182.24 258.7 182.24"/>
      <path class="cls-66" d="M291.59,172.68l1.74,11.56h-6.15l-1.01-6.7h-4.48l-1.03,6.7h-6.13l1.74-11.51,3.71-20.73h7.9l3.7,20.67ZM285.39,172.38l-1.46-9.75-1.46,9.75h2.93Z"/>
      <path class="cls-33" d="M288.9,182.24l-1.01-6.7h-7.92l-1.03,6.7h-2.09l1.39-9.21,3.41-19.03h4.56l3.4,19.03,1.38,9.21h-2.1ZM280.14,174.38h7.57l-1.81-12.05h-3.96l-1.81,12.05Z"/>
      <path class="cls-66" d="M301.68,152h14.34v5.14h-8.25v8.4h7.1v5.16h-7.1v13.54h-6.09v-32.24Z"/>
      <polygon class="cls-35" points="303.68 182.24 303.68 154 314.02 154 314.02 155.14 305.77 155.14 305.77 167.54 312.87 167.54 312.87 168.7 305.77 168.7 305.77 182.24 303.68 182.24"/>
      <path class="cls-66" d="M323.32,152h14.34v5.14h-8.25v8.4h7.1v5.16h-7.1v13.54h-6.09v-32.24Z"/>
      <polygon class="cls-36" points="325.32 182.24 325.32 154 335.66 154 335.66 155.14 327.41 155.14 327.41 167.54 334.51 167.54 334.51 168.7 327.41 168.7 327.41 182.24 325.32 182.24"/>
      <path class="cls-66" d="M346.48,152h6.09v32.24h-6.09v-32.24Z"/>
      <rect class="cls-39" x="348.48" y="154" width="2.09" height="28.24"/>
      <path class="cls-66" d="M362.66,152h6.02l4.06,15.88v-15.88h5.71v32.24h-6.02l-3.88-15.44v15.44h-5.89v-32.24Z"/>
      <polygon class="cls-37" points="373.99 182.24 370.49 168.31 366.55 168.8 366.55 182.24 364.66 182.24 364.66 154 367.13 154 370.81 168.38 374.74 167.88 374.74 154 376.45 154 376.45 182.24 373.99 182.24"/>
      <path class="cls-66" d="M396.27,165.61h7.61v12.24c0,4.64-2.63,6.96-7.9,6.97-5.26,0-7.88-2.32-7.88-6.97v-19.32c0-4.63,2.63-6.95,7.88-6.95s7.9,2.32,7.9,6.95v4.57h-6.09v-4.57c0-1.21-.6-1.82-1.79-1.83h-.04c-1.18,0-1.78.61-1.78,1.83v19.32c0,1.21.6,1.81,1.79,1.81s1.81-.6,1.81-1.81v-7.08h-1.52v-5.16Z"/>
      <path class="cls-40" d="M395.97,182.82c-5.17,0-5.88-2.39-5.88-4.97v-19.32c0-2.57.71-4.95,5.88-4.95s5.9,2.38,5.9,4.95v2.57h-2.09v-2.57c0-2.3-1.48-3.81-3.77-3.83-2.35,0-3.83,1.5-3.83,3.83v19.32c0,2.32,1.49,3.81,3.79,3.81s3.81-1.5,3.81-3.81v-9.08h-1.52v-1.16h3.61v10.24c0,2.57-.72,4.96-5.91,4.97Z"/>
      <path class="cls-66" d="M437.57,162.43v-2.45h6.09v2.45h3.29v5.84h-3.29v8.05c0,5.06-2.25,7.69-6.75,7.88-.43.01-.83.02-1.21.02-.77,0-1.43-.03-1.99-.09-3.89-.46-5.84-3.07-5.84-7.81v-5.98c0-2.49.82-4.15,2.45-5-1.63-.84-2.45-2.51-2.45-4.99v-5.4c0-4.89,2.07-7.51,6.22-7.87.54-.04,1.08-.05,1.65-.05.48,0,.96.01,1.46.04,4.3.29,6.46,2.92,6.46,7.89v1.9h-6.09v-1.9c0-1.27-.3-1.95-.91-2.03-.26-.05-.54-.07-.84-.07-.26,0-.53.02-.82.06-.68.07-1.02.76-1.02,2.05v5.4c0,1,.38,1.65,1.15,1.96.18.07.4.12.66.13h1.79ZM434.53,178.24c.22.11.62.16,1.19.16.13,0,.28,0,.44-.02.94-.04,1.41-.73,1.41-2.07v-8.05h-1.79c-.26.01-.48.05-.66.13-.77.29-1.15.94-1.15,1.94v5.98c0,1.13.19,1.77.57,1.92Z"/>
      <path class="cls-38" d="M435.7,182.22c-.69,0-1.29-.03-1.78-.08-2-.24-4.05-1.12-4.05-5.82v-5.98c0-2.51.99-3.02,1.37-3.22l3.45-1.78-3.45-1.78c-.37-.19-1.37-.7-1.37-3.22v-5.4c0-4.85,2.22-5.69,4.39-5.87.46-.03.96-.05,1.48-.05.44,0,.9.01,1.37.03,2.22.15,4.52.96,4.56,5.79h-2.09c-.04-3.2-1.85-3.8-2.63-3.91-.29-.06-.7-.09-1.12-.09-.34,0-.7.02-1.07.07-.62.07-2.77.57-2.77,4.03v5.4c0,1.82.88,3.21,2.42,3.82.38.15.83.24,1.3.27h3.88s0-2.45,0-2.45h2.09v2.45h3.29v1.84h-3.29v10.05c0,5-2.45,5.78-4.84,5.89-.38.01-.76.02-1.12.02ZM433.72,180.07c.5.23,1.13.33,2,.33.18,0,.37,0,.59-.02,1.54-.06,3.26-1.16,3.26-4.06v-10.05h-3.88c-.48.02-.92.11-1.31.27-1.52.58-2.41,1.96-2.41,3.8v5.98c0,.75,0,3,1.76,3.75Z"/>
      <path class="cls-66" d="M485.82,177.85c0,4.64-2.63,6.96-7.9,6.97-5.26,0-7.88-2.32-7.88-6.97v-19.32c0-4.63,2.63-6.95,7.88-6.95s7.9,2.32,7.9,6.95v4.57h-6.09v-4.57c0-1.21-.6-1.82-1.79-1.83h-.04c-1.18,0-1.78.61-1.78,1.83v19.32c0,1.21.6,1.81,1.79,1.81s1.81-.6,1.81-1.81v-4.57h6.09v4.57Z"/>
      <path class="cls-50" d="M477.91,182.82c-5.17,0-5.88-2.39-5.88-4.97v-19.32c0-2.57.71-4.95,5.88-4.95s5.9,2.38,5.9,4.95v2.57h-2.09v-2.57c0-2.3-1.48-3.81-3.77-3.83-2.35,0-3.83,1.5-3.83,3.83v19.32c0,2.32,1.49,3.81,3.79,3.81s3.81-1.5,3.81-3.81v-2.57h2.09v2.57c0,2.57-.72,4.96-5.91,4.97Z"/>
      <path class="cls-66" d="M510.7,177.85c0,4.64-2.63,6.96-7.9,6.97-5.26,0-7.88-2.32-7.88-6.97v-19.32c0-4.63,2.63-6.95,7.88-6.95s7.9,2.32,7.9,6.95v19.32ZM504.6,158.53c0-1.21-.6-1.82-1.79-1.83h-.04c-1.18,0-1.78.61-1.78,1.83v19.32c0,1.21.6,1.81,1.79,1.81s1.81-.6,1.81-1.81v-19.32Z"/>
      <path class="cls-47" d="M502.79,182.82c-5.17,0-5.88-2.39-5.88-4.97v-19.32c0-2.57.71-4.95,5.88-4.95s5.9,2.38,5.9,4.95v19.32c0,2.57-.72,4.96-5.91,4.97ZM502.77,154.7c-2.29,0-3.78,1.5-3.78,3.83v19.32c0,2.32,1.49,3.81,3.79,3.81s3.81-1.5,3.81-3.81v-19.32c0-2.3-1.48-3.81-3.77-3.83h-.06Z"/>
      <path class="cls-66" d="M520.33,152h6.02l4.06,15.88v-15.88h5.71v32.24h-6.02l-3.88-15.44v15.44h-5.89v-32.24Z"/>
      <polygon class="cls-46" points="531.66 182.24 528.16 168.31 524.22 168.8 524.22 182.24 522.33 182.24 522.33 154 524.8 154 528.47 168.38 532.41 167.88 532.41 154 534.12 154 534.12 182.24 531.66 182.24"/>
      <path class="cls-66" d="M545.76,158.53c0-4.63,2.63-6.95,7.88-6.95s7.9,2.32,7.9,6.95v4.57h-6.09v-4.57c0-1.21-.6-1.82-1.79-1.83h-.04c-1.18,0-1.78.61-1.78,1.83v2.85c0,1.32,1.56,2.96,4.68,4.94,3.34,2.08,5.01,4.6,5.01,7.54v3.99c0,4.65-2.63,6.97-7.89,6.97-5.27-.01-7.9-2.33-7.9-6.97v-4.57h6.09v4.57c0,1.21.6,1.81,1.81,1.81s1.79-.6,1.79-1.81v-3.6c0-1.43-1.56-3.13-4.68-5.1-3.34-2.1-5.01-4.65-5.01-7.65v-2.96Z"/>
      <path class="cls-44" d="M553.67,182.82c-5.19-.01-5.91-2.4-5.91-4.97v-2.57h2.09v2.57c0,2.32,1.5,3.81,3.81,3.81s3.79-1.5,3.79-3.81v-3.6c0-2.21-1.78-4.37-5.61-6.79-2.75-1.73-4.08-3.67-4.08-5.96v-2.96c0-2.57.71-4.95,5.88-4.95s5.9,2.38,5.9,4.95v2.57h-2.09v-2.57c0-2.3-1.48-3.81-3.77-3.83-2.35,0-3.83,1.5-3.83,3.83v2.85c0,2.13,1.73,4.17,5.61,6.63,2.75,1.72,4.08,3.63,4.08,5.85v3.99c0,2.58-.71,4.97-5.88,4.97h0Z"/>
      <path class="cls-66" d="M586.79,177.85c0,4.64-2.63,6.96-7.9,6.97-5.26,0-7.89-2.32-7.89-6.97v-25.78h6.09v25.78c0,1.21.6,1.81,1.79,1.81s1.81-.6,1.81-1.81v-25.78h6.09v25.78Z"/>
      <path class="cls-43" d="M578.88,182.82c-5.17,0-5.88-2.39-5.88-4.97v-23.78h2.09v23.78c0,2.32,1.49,3.81,3.79,3.81s3.81-1.5,3.81-3.81v-23.78h2.09v23.78c0,2.57-.72,4.96-5.91,4.97Z"/>
      <path class="cls-66" d="M596.61,184.24v-32.24h6.09v27.09h8.25v5.14h-14.34Z"/>
      <polygon class="cls-42" points="598.61 182.24 598.61 154 600.7 154 600.7 181.1 608.95 181.1 608.95 182.24 598.61 182.24"/>
      <path class="cls-66" d="M631.64,152v5.14h-4.85v27.1h-6.09v-27.1h-4.85v-5.14h15.79Z"/>
      <polygon class="cls-41" points="622.7 182.24 622.7 155.14 617.85 155.14 617.85 154 629.64 154 629.64 155.14 624.79 155.14 624.79 182.24 622.7 182.24"/>
      <path class="cls-66" d="M640.27,152h6.09v32.24h-6.09v-32.24Z"/>
      <rect class="cls-45" x="642.27" y="154" width="2.09" height="28.24"/>
      <path class="cls-66" d="M656.45,152h6.02l4.06,15.88v-15.88h5.71v32.24h-6.02l-3.88-15.44v15.44h-5.89v-32.24Z"/>
      <polygon class="cls-48" points="667.78 182.24 664.29 168.31 660.35 168.8 660.35 182.24 658.45 182.24 658.45 154 660.92 154 664.6 168.38 668.54 167.88 668.54 154 670.24 154 670.24 182.24 667.78 182.24"/>
      <path class="cls-66" d="M690.06,165.61h7.61v12.24c0,4.64-2.63,6.96-7.9,6.97-5.26,0-7.88-2.32-7.88-6.97v-19.32c0-4.63,2.63-6.95,7.88-6.95s7.9,2.32,7.9,6.95v4.57h-6.09v-4.57c0-1.21-.6-1.82-1.79-1.83h-.04c-1.18,0-1.78.61-1.78,1.83v19.32c0,1.21.6,1.81,1.79,1.81s1.81-.6,1.81-1.81v-7.08h-1.52v-5.16Z"/>
      <path class="cls-49" d="M689.76,182.82c-5.17,0-5.88-2.39-5.88-4.97v-19.32c0-2.57.71-4.95,5.88-4.95s5.9,2.38,5.9,4.95v2.57h-2.09v-2.57c0-2.3-1.48-3.81-3.77-3.83-2.35,0-3.83,1.5-3.83,3.83v19.32c0,2.32,1.49,3.81,3.79,3.81s3.81-1.5,3.81-3.81v-9.08h-1.52v-1.16h3.61v10.24c0,2.57-.72,4.96-5.91,4.97Z"/>
    </g>
  </g>
  <g>
    <g>
      <path class="cls-66" d="M212.57,100.19c-.46-6.45-1.4-12.71-2.79-18.6-1.41-5.96-2.99-10.77-4.97-15.16-1.91-4.22-3.89-8.59-6.2-12.76-3.59-6.49-8.19-12.82-13.66-18.82-6.21-6.81-13.12-12.71-20.54-17.54-5.17-3.37-10.79-6.36-16.7-8.89-6.03-2.58-12.36-4.59-19.34-6.13C122.26.93,115.79.17,109.13.03c-13.65-.29-24.15,1.88-28.03,2.84-2.9.71-8.84,2.35-16.03,5.34-3.08,1.28-6.14,2.71-9.09,4.24-.18.09-.34.2-.49.32-3.51,2.82-6.08,4.89-7.64,6.15-2.42,1.97-2.79,2.27-2.93,3.55-.09.79.14,1.58.63,2.2.19.24,1.95,2.31,4.58.24.61-.48,1.88-1.47,3.53-2.51,3.79-2.38,6.78-4.26,8.99-3.72.69.17,1.02.47,1.78,1.19,1.08,1.02,2.55,2.43,5.4,2.94,1.96.35,3.12.02,4.06-.25.55-.16.99-.28,1.82-.29.04,0,.07,0,.11,0,4.25,0,8.51,3.02,10.54,6.03.35.52.69,1.11.98,1.63.75,1.32,2.15,3.78,4.76,2.77,2.38-.91,2.08-3.22,1.84-5.07-.06-.45-.13-.99-.21-1.64,4.65,3.21,6.73,5.56,7.5,6.43,3.31,3.74,5.83,8.07,7.49,12.85,1.32,3.81,2.09,7.75,2.26,11.7.04.83.01,1.68,0,2.59l-.02.73c-.06,2.9,1.47,4.39,2.76,5.14,3.26,1.87,7.11,4.11,10.98,6.46.03.02.09.08.12.12.53,1.68.93,3.45,1.33,5.26.44,2.01,1.53,3.45,3.24,4.28,1.1.53,2.18,1.07,3.27,1.62.76.39,1.92,1.14,3.27,2.01,4.22,2.73,10.59,6.85,18.6,8.98,0,0,.02,0,.04,0-.95.11-2.01.13-3.19.04-1.7-.12-3.39-.36-5.18-.62-.7-.1-1.39-.2-2.09-.29-2.15-.28-3.39.65-3.93,1.23-.54.57-1.37,1.85-.96,3.92.49,2.42,2.02,4.25,4.55,5.43,3.21,1.5,6.86,3.43,9.67,6.34,1.71,1.77,2.28,3.68,1.79,6.01-.36,1.75-1.32,3.41-2.34,5.17l-.33.56c-1.62,2.83-4.19,4.68-8.07,5.82-2.32.68-4.87,1.08-7.81,1.22-5.41.26-9.33-.37-12.7-2.05-2.54-1.26-3.7-2.47-3.98-4.17-.26-1.53-.3-3.14-.14-4.64.52-4.71,1.77-6.8,2.23-7.02.17-.02.59.06,1.72.79.51.33,1.45.94,2.75.63.8-.19,1.5-.71,1.91-1.42.44-.75.53-1.67.26-2.49-.84-2.55-6.87-5.19-6.93-5.21-5.51-2.35-10.36-1.84-14.63-1.38-.4.04-.8.08-1.19.12-4.12.41-7.34,2.1-9.56,5.03-1.99,2.62-2.81,5.84-2.5,9.83.18,2.37.49,5.49,1.29,8.57,1.22,4.7,2.65,9.39,4.03,13.92l.41,1.33c.64,2.08,1.31,4.18,1.96,6.21.97,3.03,1.98,6.16,2.86,9.24.71,2.51,1.19,5.08,1.7,7.8.12.63.23,1.25.35,1.88.95,4.98.85,9.39-.3,13.48-1.09,3.84-3.21,6.81-6.5,9.07-1.15.79-2.41,1.48-3.76,2.06.12-.15.23-.3.33-.44.13-.17.25-.34.36-.49,4.72-6.2,5.99-13.35,3.79-21.26-1.21-4.35-3.16-8.6-5.79-12.63-3.32-5.08-6.65-10.06-9.89-14.82l-.44-.64c-4.05-5.93-7.88-11.54-10.17-18.03-1.17-3.31-1.58-6.52-1.26-9.82.02-.18.04-.35.06-.53.04-.33.08-.68.1-1.06.03-.08.06-.16.1-.25.58-1.46,1.66-4.18-.96-5.44-2.28-1.1-3.63.58-4.61,2.2-.33.2-.62.47-.86.8l-.08.11c-.44.61-.95,1.3-1.34,2.16-.59,1.29-1.13,2.59-1.65,3.86l-.29.7c-1.8,4.37-2.88,8.84-3.91,13.42-1.17,5.19-1.81,10.81-1.97,17.18-.08,3.14-.16,6.32.03,9.56-1.53-3.43-2.75-6.94-3.65-10.51-1.37-5.41-2.01-11.06-1.9-16.8.1-5.62,1.03-11.36,2.82-17.55,1.86-6.42,4.69-12.83,8.41-19.05,3.98-6.66,8.16-12.08,12.77-16.55.82-.57,1.36-1.3,1.6-2.18.04-.14.07-.28.09-.41.12-.22.21-.43.27-.62.32-1,.11-2.09-.57-2.91-.6-.73-1.83-1.44-3.03-1.56-.81-.12-1.58-.12-2.24-.11-6.96.15-13.95,1.72-21.9,4.94.13-.19.26-.38.39-.56,3.92-5.33,9.47-9.31,16.95-12.16.18-.06.67-.22,1.42-.46,1.01-.32,2.44-.78,4.15-1.34,1.24-.41,2.26-.75,2.94-.97,1.32-.44,2.17-1.73,2.05-3.12-.12-1.39-1.18-2.51-2.56-2.72-.9-.13-1.82-.3-2.73-.49-.8-.17-1.42-.32-1.69-.39l-.2-.05c-7.36-1.67-14.68-1.9-21.74-.69-2.28.39-4.46.88-6.57,1.45.33-.23.67-.45,1-.66,4.47-2.84,9.29-4.56,14.73-5.25,6.08-.78,12.51-.48,20.25.92,2.24.41,4.75.82,5.08.87,1.26.24,2.55.49,3.81.75,1.46.31,2.92-.51,3.44-1.9.52-1.4-.06-2.97-1.37-3.69l-2.17-1.2c-.47-.25-.95-.51-1.42-.77-1.07-.58-2.18-1.19-3.31-1.75-5.19-2.59-11.04-4.33-17.38-5.15-7.45-.97-14.28-.74-20.87.7-6.13,1.34-11.5,3.43-16.42,6.39-6.22,3.74-11.55,8.79-15.85,14.99-3.45,4.98-6.1,10.49-8.12,16.83-1.67,5.25-2.78,10.65-3.32,16.04l-.19,1.95c-.24,2.43-.41,4.04-.44,4.94-.05,1.36-.07,2.73-.04,4.08.03,1.5,1.16,2.75,2.65,2.93,1.49.19,2.88-.76,3.27-2.21l.52-1.93c.43-.6.83-1.15,1.23-1.67,2.6-3.38,5.19-5.38,6.59-6.46l.1-.08c.86-.66,1.76-1.3,2.7-1.91-1.61,3.07-3.04,6.39-4.33,10.05-2.23,6.33-3.77,12.96-4.71,20.29-.74,5.76-.88,11.88-.42,18.71.63,9.38,2.89,18.12,6.72,25.99,2.4,4.93,5.24,9.03,8.68,12.54.51.52,1.06.84,1.43,1.05.03.02.05.03.08.05.08.08.17.17.25.27.17.18.34.36.48.49,1.71,1.72,3.52,1.02,4.31.34.22-.19,2.07-1.9.27-4.39-.13-.17-.31-.42-.57-.75-.01-.07-.03-.14-.05-.21-.13-.46-.28-.92-.43-1.38-.27-.84-.53-1.63-.64-2.35-.62-4.02-.51-7.99.35-12.09.31,3.5,1.05,6.95,2.22,10.33,2.89,8.36,7.69,16,14.67,23.35,5.13,5.4,11.12,10.1,17.81,13.97,4.27,2.47,7.7,4.01,11.14,5,3.92,1.12,9.12,2.53,14.58,3.41,4.49.73,9.2,1.16,14.01,1.29,1.31.03,2.72.06,4.2.06,5.11,0,11.08-.3,17.03-1.58.8-.17,1.6-.34,2.4-.51,3.81-.8,7.76-1.63,11.6-2.79,5.84-1.76,11.71-4.23,17.94-7.53,5.53-2.93,10.9-6.42,15.95-10.37,4.54-3.55,8.96-7.67,13.14-12.27,4.37-4.81,8.33-10.09,11.78-15.7,3.11-5.06,5.83-10.46,8.08-16.04,2.8-6.95,4.85-14.15,6.09-21.42,1.52-8.92,1.99-17.02,1.43-24.76Z"/>
      <path class="cls-52" d="M107.11,211.51c-1.28,0-2.64-.02-4.16-.06-4.73-.13-9.37-.55-13.79-1.27-5.38-.87-10.51-2.26-14.39-3.37-3.3-.95-6.62-2.44-10.77-4.84-6.55-3.79-12.42-8.39-17.44-13.68-6.81-7.18-11.49-14.62-14.31-22.75-1.12-3.24-1.84-6.59-2.13-9.94l-3.25-.19c-.89,4.3-1.01,8.45-.36,12.68.13.85.41,1.7.7,2.61.14.44.29.89.41,1.33,0,.03.02.06.02.09l.08.37.23.3c.24.32.42.55.54.71.8,1.1.44,1.8,0,2.18-.18.15-.53.34-.9.34s-.77-.19-1.17-.59c-.13-.13-.29-.29-.45-.46l-.42-.44-.25-.14c-.36-.2-.76-.43-1.11-.79-3.31-3.38-6.05-7.34-8.37-12.11-3.74-7.68-5.94-16.21-6.56-25.38-.45-6.73-.32-12.74.41-18.39.93-7.21,2.44-13.74,4.63-19.95,1.27-3.61,2.66-6.83,4.24-9.83l2.91-5.53-5.25,3.38c-.98.63-1.93,1.3-2.82,1.99l-.1.08c-1.45,1.12-4.16,3.21-6.89,6.76-.41.54-.83,1.1-1.27,1.72l-.17.24-.6,2.21c-.16.6-.7,1.02-1.31,1.02-.06,0-.11,0-.17-.01-.68-.08-1.2-.65-1.21-1.33-.03-1.31-.02-2.65.04-3.98.03-.85.19-2.43.43-4.84l.19-1.96c.52-5.28,1.62-10.56,3.25-15.7,1.97-6.19,4.55-11.55,7.9-16.39,4.16-6.01,9.32-10.9,15.34-14.52,4.76-2.86,9.96-4.89,15.92-6.19,3.85-.84,7.7-1.25,11.78-1.25,2.74,0,5.61.19,8.53.57,6.16.8,11.83,2.48,16.85,4.99,1.13.56,2.26,1.18,3.26,1.72.48.26.95.52,1.43.77l2.16,1.19c.59.32.86,1.04.62,1.68-.2.54-.71.9-1.28.9-.09,0-.19,0-.28-.03-1.28-.27-2.58-.52-3.85-.76l-.1-.02c-1.85-.3-3.62-.61-4.98-.86-5.07-.92-9.59-1.37-13.79-1.37-2.4,0-4.67.14-6.96.43-5.68.73-10.72,2.52-15.4,5.49-.35.22-.7.45-1.04.69l1.36,2.95c2.04-.56,4.19-1.04,6.41-1.42,2.87-.49,5.81-.74,8.76-.74,4.06,0,8.22.48,12.34,1.41l.18.04c.29.07.92.23,1.74.4.95.2,1.9.37,2.83.5.63.09,1.11.6,1.17,1.24.06.63-.33,1.22-.93,1.42-.68.23-1.7.56-2.93.97-1.65.54-3.04.98-4.04,1.3l-.48.15c-.57.18-.95.3-1.11.36-7.81,2.98-13.6,7.14-17.71,12.73-.15.2-.29.41-.44.63l-2.93,4.42,4.92-1.99c7.76-3.14,14.54-4.68,21.31-4.82.14,0,.29,0,.45,0,.59,0,1.07.03,1.52.1h.07c.74.08,1.59.57,1.92.97.32.39.42.9.27,1.37-.04.12-.08.22-.14.32l-.15.26-.05.29c-.01.08-.03.16-.05.24-.14.5-.45.91-.95,1.26l-.11.08-.1.1c-4.71,4.58-8.97,10.1-13.03,16.89-3.79,6.34-6.68,12.88-8.58,19.44-1.83,6.33-2.77,12.21-2.88,17.98-.11,5.89.55,11.69,1.95,17.24.92,3.64,2.18,7.27,3.75,10.77l3.14-.76c-.18-3.17-.1-6.35-.03-9.43.16-6.26.79-11.78,1.93-16.86,1.01-4.51,2.07-8.91,3.82-13.15l.29-.7c.51-1.25,1.04-2.54,1.62-3.8.32-.71.76-1.3,1.17-1.88l.08-.11c.11-.15.24-.27.39-.36l.34-.21.21-.34c.73-1.2,1.3-1.76,1.81-1.76.19,0,.42.06.68.19.85.41,1.08.99.14,3.35l-.19.49-.02.25c-.02.35-.06.68-.1.98-.02.18-.04.37-.06.56-.34,3.55.1,6.99,1.35,10.53,2.36,6.7,6.25,12.39,10.36,18.41l.44.64c3.23,4.74,6.56,9.72,9.87,14.79,2.54,3.88,4.42,7.98,5.59,12.17,2.06,7.39.88,14.06-3.51,19.83-.12.16-.7.93-.7.93l-3.72,4.94,5.68-2.44c1.45-.62,2.81-1.37,4.05-2.22,3.62-2.49,5.96-5.75,7.15-9.97,1.23-4.35,1.34-9.01.34-14.24-.11-.55-.21-1.1-.31-1.66l-.04-.22c-.52-2.76-1-5.36-1.73-7.95-.88-3.11-1.89-6.26-2.87-9.29-.65-2.02-1.32-4.1-1.96-6.19l-.41-1.33c-1.38-4.51-2.8-9.18-4.01-13.85-.76-2.96-1.07-5.99-1.24-8.29-.28-3.57.43-6.42,2.17-8.71,1.93-2.55,4.77-4.03,8.42-4.39l1.2-.13c1.75-.19,3.56-.38,5.45-.38,3.09,0,5.74.52,8.36,1.64,2.26.98,5.61,2.99,6.02,4.21.12.38.08.81-.12,1.15-.19.32-.51.56-.87.65-.11.03-.22.04-.33.04-.45,0-.83-.25-1.14-.45-1.16-.75-1.9-1.06-2.57-1.06h-.24s-.27.05-.27.05l-.25.12c-1.42.69-2.66,3.95-3.15,8.32-.18,1.66-.13,3.42.15,5.1.47,2.84,2.73,4.3,4.87,5.37,3.12,1.55,6.68,2.27,11.2,2.27.73,0,1.51-.02,2.31-.06,3.07-.15,5.75-.57,8.19-1.29,4.32-1.27,7.19-3.36,9.03-6.58l.32-.56c1.09-1.88,2.11-3.65,2.53-5.66.6-2.88-.13-5.33-2.22-7.49-3-3.1-6.82-5.12-10.16-6.69-2.06-.97-3.25-2.36-3.63-4.27-.26-1.29.15-2.06.55-2.48.32-.35.92-.76,1.95-.76.18,0,.37.01.56.04.69.09,1.38.19,2.08.29,1.81.26,3.53.5,5.29.63.55.04,1.09.06,1.6.06.67,0,1.31-.04,1.91-.11l.21-3.23c-7.77-2.07-14.01-6.1-18.14-8.77-1.39-.9-2.58-1.67-3.42-2.1-1.09-.55-2.19-1.1-3.3-1.63-1.25-.6-2.02-1.63-2.35-3.15-.41-1.85-.82-3.66-1.37-5.4l-.08-.26-.16-.22c-.07-.09-.24-.31-.49-.48l-.05-.03-.05-.03c-3.89-2.36-7.75-4.6-11.01-6.48-1.34-.77-1.97-1.97-1.94-3.68l.02-.72c.02-.94.05-1.82,0-2.71-.19-4.11-.98-8.2-2.35-12.16-1.73-4.99-4.36-9.5-7.82-13.4-.82-.92-2.99-3.38-7.8-6.7l-2.99-2.07.43,3.61c.08.66.15,1.21.21,1.66.3,2.34.15,2.96-.8,3.33-.22.09-.42.13-.6.13-.91,0-1.69-1.36-2.15-2.18-.32-.56-.67-1.18-1.05-1.74-2.2-3.25-6.86-6.75-11.9-6.75h-.14c-1.05.01-1.66.19-2.25.36-.61.18-1.19.34-2.01.34-.41,0-.84-.04-1.31-.13-2.37-.43-3.53-1.54-4.56-2.51-.77-.74-1.38-1.32-2.52-1.6-.38-.09-.79-.14-1.2-.14-2.59,0-5.44,1.79-9.05,4.06-1.71,1.08-3.03,2.11-3.66,2.6-.33.26-.82.57-1.27.57-.58,0-1.01-.52-1.01-.53-.22-.28-.33-.64-.29-1,.06-.57.07-.61,2.33-2.45,1.53-1.24,4.09-3.31,7.63-6.15.07-.06.15-.11.23-.15,2.91-1.51,5.93-2.92,8.96-4.18,7.08-2.94,12.93-4.56,15.79-5.26,3.45-.85,12.79-2.82,25.13-2.82.81,0,1.64,0,2.47.03,6.56.15,12.92.89,18.92,2.22,6.88,1.52,13.11,3.49,19.05,6.04,5.82,2.49,11.36,5.44,16.45,8.76,7.3,4.76,14.1,10.57,20.22,17.27,5.39,5.91,9.91,12.13,13.44,18.51,2.28,4.12,4.24,8.45,6.14,12.64,1.94,4.29,3.49,9.01,4.87,14.86,1.37,5.8,2.29,11.97,2.75,18.34.54,7.61.08,15.58-1.41,24.37-1.22,7.15-3.23,14.25-5.99,21.08-2.22,5.5-4.9,10.81-7.96,15.79-3.39,5.53-7.3,10.73-11.59,15.46-4.11,4.52-8.46,8.58-12.93,12.08-4.98,3.89-10.27,7.33-15.71,10.21-6.14,3.25-11.91,5.68-17.65,7.41-3.77,1.14-7.67,1.96-11.45,2.75-.82.17-1.62.34-2.43.51-4.85,1.04-10.31,1.54-16.69,1.54Z"/>
      <path class="cls-66" d="M122.41,73.23c-.24-1.27-1.14-2.32-2.46-2.89-1.42-.61-2.86-1.02-4.29-1.44-1.44-.42-2.9,0-3.8,1.08-.45.54-.71,1.18-.77,1.85-.01,0-.03,0-.04.01l-.24.06c-.52.13-1.05.26-1.57.39-1.01.24-2.06.5-3.11.79-.46.13-.79.31-.98.41-.04.02-.08.04-.13.07-.59.26-1.2.49-1.81.66-1.47.42-2.4,1.88-2.15,3.39.25,1.51,1.59,2.61,3.13,2.52l.91-.05c.16.07.32.14.49.2.99.38,1.98.76,2.97,1.14,1.9.73,3.79,1.45,5.68,2.2.94.37,1.78.76,2.46,1.08.87.41,2.41,1.13,3.75.66.42.13.87.22,1.32.22.9,0,1.8-.37,2.45-1.52,1.27-2.25-.58-3.79-1.7-4.57-.31-.5-.67-.89-.9-1.14-.19-.21-.4-.44-.6-.69-.12-.15-.21-.27-.28-.37.08-.09.19-.21.34-.35,1.5-1.47,1.48-2.97,1.33-3.73Z"/>
      <path class="cls-51" d="M121.77,83.96c-.24,0-.52-.05-.84-.15l-.51-.16-.51.18c-.11.04-.25.06-.4.06-.7,0-1.55-.4-2.1-.66-.69-.33-1.56-.73-2.56-1.12-1.84-.72-3.69-1.43-5.53-2.14,0,0-2.14-.82-3.13-1.2-.14-.06-.28-.11-.42-.17l-.35-.15-1.4.07c-.66,0-1.21-.48-1.32-1.15-.11-.69.31-1.35.98-1.54.69-.2,1.37-.45,2.03-.74.1-.05.18-.09.24-.12.17-.09.37-.2.65-.28,1.01-.29,2.03-.53,3.02-.77.56-.13,1.09-.26,1.62-.4l1.36-.34.16-1.16c.04-.36.17-.68.4-.96.35-.42.86-.65,1.43-.65.21,0,.43.03.65.09,1.43.41,2.77.8,4.1,1.37.82.35,1.35.95,1.49,1.68.1.54.03,1.37-.87,2.25-.18.18-.32.33-.42.45l-.84.96.72,1.05c.08.12.2.28.35.47.2.26.42.5.63.72l.04.05c.21.23.49.54.73.91l.18.28.27.19c1.84,1.29,1.48,1.94,1.21,2.42-.35.63-.69.68-1.01.68Z"/>
    </g>
    <g>
      <path class="cls-2" d="M209.56,100.4c-.44-6.11-1.31-12.16-2.71-18.12-1.18-5-2.66-9.92-4.78-14.61-1.92-4.23-3.84-8.48-6.09-12.55-3.66-6.61-8.15-12.66-13.25-18.25-5.95-6.52-12.57-12.23-19.96-17.04-5.15-3.36-10.57-6.22-16.24-8.65-6.08-2.6-12.37-4.54-18.8-5.96-6.13-1.36-12.37-2.05-18.66-2.19-13.77-.3-24.1,1.98-27.24,2.75-1.58.39-7.81,1.96-15.59,5.19-3.58,1.49-6.58,2.95-8.86,4.13-7.78,6.24-9.47,7.65-9.45,7.68.02.03,1.71-1.43,4.13-2.95,4.33-2.72,7.86-4.94,11.31-4.09,3.18.78,3.29,3.42,7,4.09,2.32.42,2.59-.56,5.32-.59,5.14-.06,10.47,3.33,13.19,7.35,1.05,1.56,1.84,3.41,2.17,3.28.24-.09-.01-1.13-.36-4.26-.16-1.42-.19-1.97-.23-2.23-.49-3.77-8.96-7.42-10.85-8.14,1.29.43,5.89,2.03,12.38,6,6.9,4.21,10.06,7.52,11.53,9.18,3.61,4.08,6.3,8.71,8.08,13.86,1.41,4.06,2.23,8.25,2.43,12.55.05,1.17,0,2.34-.02,3.52-.02,1.05.25,1.89,1.25,2.46,3.7,2.13,7.4,4.28,11.05,6.5.6.36,1.18,1.04,1.39,1.69.59,1.84,1.02,3.73,1.43,5.61.22,1,.67,1.75,1.6,2.2,1.11.54,2.22,1.09,3.32,1.64,3.47,1.75,11.06,8.05,21.28,10.76,0,0,.15.04,8.37,1.85,0,0-1.76,1.44-4.29,2.71-.08.04-.18.09-.25.13-2.52,1.28-5.24,1.49-7.97,1.29-2.49-.18-4.96-.6-7.44-.92-1.21-.16-1.78.38-1.54,1.57.33,1.63,1.43,2.62,2.87,3.3,3.86,1.81,7.56,3.87,10.56,6.98,2.38,2.46,3.27,5.35,2.58,8.72-.51,2.44-1.79,4.5-3,6.63-2.23,3.88-5.67,5.99-9.84,7.21-2.79.82-5.63,1.21-8.52,1.34-4.89.23-9.7-.13-14.18-2.36-2.73-1.35-5.08-3.16-5.61-6.37-.3-1.79-.36-3.67-.16-5.48.2-1.76,1.07-8.7,4.46-9.6,2.16-.58,4.45,1.55,4.54,1.4.08-.14-2.02-2.03-5.25-3.41-5.27-2.25-9.98-1.47-14.34-1.03-2.98.3-5.59,1.39-7.46,3.85-1.75,2.31-2.11,5.03-1.89,7.77.21,2.7.53,5.44,1.21,8.05,1.31,5.08,2.87,10.11,4.4,15.13,1.58,5.18,3.36,10.3,4.84,15.51.92,3.25,1.47,6.61,2.11,9.93.95,4.98,1.03,9.95-.36,14.87-1.27,4.5-3.84,8.08-7.7,10.73-2.38,1.63-4.98,2.78-7.73,3.57-1.94.55-3.95.85-5.94,1.21-.02,0-.1,0-.22,0-.99-.04-1.8,0-2.41.06.54-.25,1.3-.62,2.17-1.15,3.77-2.3,5.77-5.29,6.96-6.85,4.3-5.65,5.15-11.91,3.28-18.63-1.17-4.21-3.03-8.14-5.41-11.79-3.24-4.95-6.52-9.88-9.86-14.77-4.2-6.15-8.45-12.25-10.96-19.36-1.28-3.62-1.79-7.31-1.42-11.12.06-.63.16-1.26.17-1.89,0-.21,2.07-4.81-.3-.65s-.48.15-.6.32c-.41.56-.83,1.13-1.12,1.75-.67,1.47-1.27,2.96-1.89,4.45-1.72,4.17-2.76,8.54-3.75,12.93-1.23,5.47-1.76,11.02-1.9,16.59-.21,8.48-.29,16.11,3.76,24.27.74,1.49,1.46,2.67,1.96,3.45-.58-.43-1.45-1.13-2.41-2.08-2.04-2.05-3.09-4.09-3.95-5.45-4.04-6.35-7.08-13.15-8.93-20.46-1.46-5.77-2.1-11.63-1.99-17.6.12-6.26,1.21-12.36,2.93-18.33,2.01-6.97,4.99-13.53,8.72-19.76,3.79-6.34,8.13-12.23,13.46-17.37.07-.07.49-.24.59-.61.11-.41-.19-.84-.44-1.17-.87-.13-2.09-.44-2.08-.53.01-.09,1.33,0,1.78,0,.01-.01.04-.02.07-.02-.6-.1-1.22-.1-1.83-.09-7.79.17-15.12,2.29-22.23,5.3-1.12.47-3.04.78-4.66,2.34-1.23,1.18-1.93,2.6-2.07,2.52-.12-.07.48-1.13,1.1-3.21.14-.47.2-.8.26-.91,1.18-2.17,2.16-4.48,3.6-6.45,4.67-6.34,11.05-10.43,18.32-13.2.34-.13,2.53-.8,5.69-1.84,1.23-.41,2.25-.74,2.93-.97-.65-.1-1.67-.26-2.91-.52-1.06-.22-1.82-.42-1.94-.45-6.81-1.55-13.66-1.85-20.56-.65-4.92.85-9.69,2.2-14.25,4.23-.21.09-1.62.75-3.57,1.56-1.22.51-2.22.9-2.84,1.14l1.07-1.17c.51-.59.99-1.2,1.53-1.75,3.16-3.26,6.52-6.3,10.36-8.74,4.88-3.1,10.19-4.96,15.96-5.7,7.13-.91,14.16-.33,21.17.95,2.39.43,5.06.87,5.06.87,1.58.29,2.92.57,3.91.77-.71-.39-1.43-.79-2.14-1.18-1.55-.83-3.08-1.69-4.66-2.48-5.18-2.59-10.72-4.12-16.42-4.86-6.62-.86-13.25-.79-19.84.66-5.51,1.2-10.69,3.13-15.51,6.02-6,3.61-10.94,8.36-14.92,14.13-3.42,4.94-5.91,10.33-7.72,16.03-1.6,5.02-2.67,10.17-3.19,15.42-.33,3.31-.58,5.7-.62,6.71-.06,1.59-.06,2.92-.04,3.89.22-.81.44-1.63.66-2.44.52-.75,1.06-1.48,1.61-2.2,2.91-3.78,5.86-6.02,7.23-7.09,5.2-4.01,10.61-6.16,13.53-7.17-.61.56-1.49,1.44-2.42,2.62-1.17,1.48-1.83,2.8-2.31,3.6-2.36,3.95-4.22,8.14-5.75,12.49-2.25,6.4-3.7,12.98-4.56,19.68-.77,6.02-.81,12.07-.4,18.12.58,8.69,2.6,17.02,6.42,24.87,2.1,4.32,4.74,8.3,8.12,11.75.32.32.77.52,1.15.77.07-.07,2.69,2.98.21-.21-2.48-3.19-.15-.52-.22-.77-.39-1.37-.94-2.71-1.15-4.11-.75-4.84-.5-9.63.66-14.42,1.18-4.91,2.97-9.54,5.68-13.81.29-.45.67-.85.67-.85.8-.98,1.54-1.79,2.16-2.42-.35.59-.69,1.17-1.04,1.76-.06.63-.05,1.28-.18,1.89-.16.74-.51,1.44-.68,2.18-1.74,7.6-1.42,15.12,1.13,22.48,2.94,8.49,7.85,15.78,14.01,22.26,5.05,5.32,10.78,9.77,17.13,13.44,3.33,1.93,6.77,3.65,10.46,4.71,4.68,1.34,9.4,2.55,14.23,3.33,4.52.73,9.05,1.13,13.61,1.25,6.88.18,13.76,0,20.52-1.45,4.61-.99,9.26-1.87,13.77-3.23,6.04-1.82,11.82-4.35,17.4-7.31,5.47-2.9,10.64-6.28,15.51-10.08,4.6-3.59,8.83-7.6,12.76-11.92,4.3-4.73,8.1-9.82,11.44-15.25,3.05-4.97,5.67-10.17,7.85-15.59,2.72-6.73,4.7-13.67,5.91-20.8,1.35-7.95,1.97-15.96,1.4-24.04ZM145.79,142.67c-1.37,3.09-2.74,6.2-4.41,9.13-1.41,2.47-3.18,4.67-5.31,6.53-.68.6-1.35.91-2.41,1.85-2.39,2.12-3.34,3.94-3.64,3.78-.2-.1-.09-1.01,1.36-4.76.1-1.02.09-2.6-.77-4.1-.5-.86-1.08-1.37-1.5-1.73-1.94-1.68-3.82-3.41-5.75-5.1-1.67-1.47-3.28-2.99-4.28-5.03-.93-1.91-.55-3.37,1.31-4.43,1.94-1.1,4.13-1.49,6.3-1.56,5.22-.17,10.45-.16,15.67-.25.56,0,3.02.03,3.03-.17,0-.02-.03-.05-.03-.05,0,0,1.19.96,1.57,1.87.56,1.34-.65,2.87-1.15,4.01ZM74.06,70.04s-.06,0-.15,0c0,0,0,0,0,0-.06.08.11.27.31.53.45.07.81.09.84,0,.05-.15-.8-.58-1.07-.55.02,0,.05,0,.07,0,0,0,.01,0,.01,0Z"/>
      <path class="cls-53" d="M206.83,100.6c-.44-6.15-1.33-12.1-2.65-17.68-1.32-5.59-2.78-10.07-4.61-14.11-1.87-4.12-3.8-8.38-5.99-12.35-3.37-6.1-7.7-12.06-12.88-17.73-5.88-6.45-12.42-12.03-19.43-16.6-4.9-3.19-10.22-6.02-15.83-8.42-5.7-2.44-11.69-4.34-18.32-5.8-5.74-1.27-11.84-1.98-18.13-2.12-.83-.02-1.65-.03-2.45-.03-11.82,0-20.77,1.89-24.08,2.7-2.21.54-8.11,2.12-15.19,5.06-.36.15-.72.3-1.07.45.95.55,1.63,1.2,2.19,1.73.84.8,1.3,1.24,2.45,1.44.22.04.41.06.57.06.25,0,.44-.05.89-.18.73-.21,1.73-.49,3.33-.51h.18c1.03,0,2.09.12,3.14.34l1.51-4.2c3.85,1.29,8.45,3.51,12.93,6.26,7.78,4.75,11.07,8.48,12.15,9.7,3.81,4.31,6.71,9.28,8.62,14.78,1.51,4.34,2.37,8.82,2.58,13.33.05,1.03.02,2.03,0,3l-.02.7s0,.07,0,.1c3.26,1.88,7.1,4.11,10.98,6.47,1.19.72,2.17,1.95,2.57,3.2.62,1.94,1.06,3.88,1.5,5.86.05.24.1.32.12.32,0,0,0,0,0,0,1.13.54,2.25,1.1,3.36,1.67,1.04.52,2.26,1.31,3.8,2.31,3.91,2.53,9.8,6.34,16.91,8.24.19.04,1.36.31,8.3,1.84l2.15.47v2.2c0,.79,0,2.26-5.81,5.16l-.24.12c-2.18,1.11-4.63,1.65-7.49,1.65-.62,0-1.24-.02-1.92-.07-.9-.07-1.8-.16-2.68-.27,3.14,1.59,6.48,3.63,9.31,6.56,3.02,3.12,4.16,6.99,3.29,11.18-.55,2.66-1.79,4.81-2.99,6.88l-.32.55c-2.38,4.14-6.12,6.91-11.44,8.48-1.37.4-2.8.72-4.3.96.17,0,.33,0,.5,0,.1,0,.27,0,.46,0,.17,0,.5,0,.85,0,.39-.11.81-.17,1.27-.17,1.75,0,2.95.84,3.61,2,.36.45.71.96.94,1.51.94,2.25-.18,4.31-.85,5.54-.13.25-.26.48-.33.64l-.2.45c-1.31,2.96-2.67,6.01-4.33,8.92-1.58,2.77-3.56,5.2-5.89,7.24-.41.35-.78.62-1.14.87-.39.28-.77.54-1.25.96-1.15,1.03-1.92,1.96-2.47,2.64-.74.91-1.51,1.85-2.95,1.85h-.69s-.58-.3-.58-.3c-2.55-1.28-1.58-4.02-.11-7.82.04-.83-.11-1.55-.45-2.13-.26-.45-.57-.72-.91-1.02-1.09-.95-2.18-1.92-3.23-2.86-.84-.75-1.68-1.51-2.53-2.25-1.82-1.6-3.71-3.37-4.93-5.89-1.58-3.25-.68-6.25,2.41-8.01,2.09-1.19,4.57-1.82,7.57-1.92.79-.03,1.59-.05,2.38-.07-2.77-.42-5.24-1.18-7.55-2.33-2.67-1.32-6.31-3.63-7.1-8.37-.34-2.05-.41-4.21-.18-6.23.36-3.28,1.2-7.1,3.09-9.57-1.39-.36-2.86-.52-4.48-.52s-3.36.18-4.99.35c-.41.04-.82.09-1.23.13-2.54.25-4.3,1.14-5.55,2.78-1.12,1.47-1.54,3.35-1.35,5.91.16,2.13.44,4.92,1.13,7.58,1.18,4.58,2.6,9.21,3.96,13.68l.41,1.33c.62,2.04,1.29,4.12,1.94,6.12.99,3.07,2.01,6.25,2.92,9.44.78,2.76,1.31,5.58,1.82,8.31.12.62.23,1.24.35,1.85,1.13,5.88.99,11.15-.42,16.13-1.45,5.11-4.4,9.23-8.78,12.24-2.5,1.71-5.37,3.04-8.53,3.94-1.69.48-3.39.78-5.03,1.06-.39.07-1.44.25-1.44.25h-.23s-.13,0-.24,0h-.08c-.23-.01-.44-.02-.65-.02-.48,0-.95.02-1.41.06l-1.38-5.22c.64-.29,1.28-.63,1.88-1,2.94-1.79,4.66-4.11,5.8-5.64.14-.19.28-.37.4-.53,3.62-4.75,4.54-10.06,2.82-16.23-1.05-3.78-2.76-7.49-5.07-11.02-3.3-5.04-6.61-10-9.83-14.72l-.43-.64c-4.08-5.98-8.3-12.16-10.84-19.36-.47-1.35-.85-2.7-1.13-4.06-1.03,3.07-1.78,6.27-2.52,9.54-1.08,4.82-1.68,10.07-1.83,16.06-.2,7.82-.38,15.21,3.47,22.98.54,1.09,1.15,2.17,1.81,3.19l-3.94,3.68c-.96-.71-1.87-1.5-2.72-2.35-1.88-1.89-3.01-3.76-3.83-5.12-.17-.28-.33-.55-.48-.79-4.29-6.73-7.41-13.89-9.27-21.26-1.49-5.9-2.19-12.07-2.07-18.32.11-6.13,1.11-12.36,3.04-19.04,1.99-6.89,5.02-13.76,9-20.41,3.62-6.05,7.41-11.16,11.53-15.52-5.85.44-11.89,2.04-18.79,4.96-.37.16-.75.28-1.15.41-.94.31-1.91.63-2.69,1.38-.53.51-.96,1.12-1.27,1.57-.44.64-1.18,1.71-2.68,1.71h-.76s-.64-.38-.64-.38c-1.38-.81-1.7-2.19-.94-4.11.2-.5.5-1.25.8-2.26.05-.17.09-.31.12-.43.07-.3.16-.63.36-1,.34-.62.66-1.25.97-1.88.82-1.63,1.68-3.32,2.83-4.89,4.36-5.93,10.34-10.4,18.25-13.62-2.01-.25-4.01-.37-5.98-.37-2.7,0-5.42.23-8.08.69-4.99.86-9.44,2.18-13.6,4.04l-.15.07c-.49.22-1.78.81-3.48,1.52-.96.4-1.93.79-2.91,1.17l-3.01-4.41,1.05-1.14c.15-.17.29-.34.43-.51.37-.43.75-.88,1.18-1.33,3.89-4,7.34-6.9,10.86-9.14,5.13-3.26,10.88-5.31,17.09-6.1,2.31-.29,4.71-.45,7.15-.46-.08-.01-.15-.02-.23-.03-2.73-.35-5.41-.54-7.97-.54-3.76,0-7.43.39-10.93,1.15-5.51,1.2-10.31,3.07-14.68,5.69-5.52,3.32-10.26,7.81-14.08,13.34-3.12,4.5-5.53,9.51-7.36,15.3-1.55,4.87-2.58,9.87-3.08,14.86l-.03.31c1.83-1.83,3.43-3.07,4.38-3.8l.1-.08c4.07-3.15,9.02-5.77,14.32-7.59l2.75,4.6c-.77.71-1.48,1.48-2.12,2.3-.8,1.02-1.34,1.96-1.77,2.71-.13.22-.24.42-.35.6-2.12,3.55-3.92,7.47-5.51,11.99-2.09,5.94-3.54,12.19-4.43,19.12-.69,5.38-.82,11.14-.39,17.59.58,8.63,2.65,16.66,6.15,23.86.79,1.62,1.62,3.13,2.52,4.55-.13-3.64.24-7.32,1.13-10.98,1.34-5.56,3.31-10.35,6.03-14.64.34-.53.74-.99.92-1.19.71-.87,1.47-1.72,2.26-2.53l4.32,3.31-.71,1.19c-.03.49-.07,1.05-.2,1.65-.12.54-.29,1.01-.43,1.42-.1.29-.2.56-.25.77-1.64,7.16-1.29,14.22,1.04,20.97,2.62,7.57,7.01,14.53,13.41,21.27,4.75,5,10.3,9.36,16.51,12.95,3.85,2.23,6.88,3.6,9.84,4.44,3.77,1.08,8.75,2.43,13.91,3.26,4.24.69,8.69,1.1,13.24,1.22,1.45.04,2.77.06,4.04.06h0c6.18,0,11.21-.46,15.83-1.45.81-.17,1.62-.34,2.43-.51,3.69-.78,7.52-1.58,11.12-2.67,5.48-1.66,11.01-3.98,16.91-7.11,5.23-2.78,10.32-6.08,15.11-9.82,4.29-3.35,8.47-7.25,12.42-11.6,4.13-4.54,7.87-9.53,11.13-14.84,2.94-4.79,5.51-9.9,7.65-15.18,2.65-6.56,4.58-13.37,5.75-20.23,1.44-8.46,1.89-16.11,1.37-23.39Z"/>
      <path class="cls-54" d="M107.11,204.66c-1.25,0-2.54-.02-3.97-.06-4.43-.12-8.76-.52-12.88-1.18-5.01-.81-9.9-2.13-13.59-3.19-2.74-.78-5.58-2.07-9.22-4.18-5.98-3.46-11.33-7.66-15.9-12.46-6.13-6.45-10.31-13.09-12.8-20.28-2.17-6.26-2.49-12.81-.96-19.46.03-.13.1-.29.16-.46.17-.49.37-1.06.53-1.75.11-.51.17-.98.21-1.41l1.62-2.73-8.18-6.27-1.7,1.74c-.83.85-1.63,1.74-2.38,2.65-.28.3-.75.86-1.16,1.51-2.88,4.54-4.97,9.6-6.38,15.46-.13.55-.25,1.1-.36,1.64-2.23-5.75-3.59-11.99-4.03-18.6-.42-6.27-.3-11.85.37-17.06.87-6.73,2.27-12.8,4.3-18.56,1.53-4.34,3.25-8.1,5.28-11.49.12-.19.24-.41.37-.65.4-.71.86-1.51,1.54-2.37.56-.71,1.17-1.37,1.83-1.98l1.63-1.51-5.03-8.42-2.1.72c-5.16,1.78-10.02,4.29-14.13,7.29.51-2.55,1.16-5.08,1.96-7.57,1.76-5.53,4.05-10.29,7.01-14.57,3.6-5.21,8.06-9.43,13.24-12.55.82-.49,1.65-.95,2.5-1.39-2.31,1.82-4.65,3.97-7.16,6.56-.5.52-.93,1.02-1.31,1.47,0,0-.28.33-.39.45l-2.49,2.72,5.46,7.99,2.03-.78c.98-.38,1.98-.78,2.98-1.2,1.71-.72,3.04-1.32,3.53-1.54l.17-.08c3.94-1.75,8.17-3.01,12.93-3.83.94-.16,1.89-.29,2.85-.4-3.83,2.64-7.05,5.74-9.72,9.37-1.29,1.75-2.24,3.62-3.07,5.28-.32.64-.62,1.23-.94,1.81-.36.67-.51,1.25-.61,1.64-.03.11-.05.2-.08.31-.27.9-.54,1.59-.72,2.04-1.26,3.17-.48,5.97,2.1,7.48l1.28.75h1.5c2.94,0,4.39-2.09,4.94-2.88.26-.38.58-.84.91-1.16.34-.32.95-.53,1.66-.76.44-.15.88-.29,1.35-.49,3.88-1.64,7.43-2.84,10.82-3.64-2.42,3.1-4.73,6.5-6.98,10.27-4.1,6.85-7.22,13.93-9.28,21.05-2,6.92-3.03,13.38-3.15,19.76-.12,6.5.61,12.91,2.16,19.04,1.94,7.66,5.17,15.08,9.62,22.06.14.22.28.46.44.72.85,1.41,2.13,3.53,4.24,5.65.94.95,1.96,1.83,3.03,2.62l1.84,1.36,7.28-6.8-1.24-1.92c-.6-.94-1.16-1.92-1.66-2.93-3.55-7.16-3.38-13.89-3.19-21.69.15-5.81.72-10.89,1.77-15.53.06-.25.12-.51.17-.77,2.6,5.67,6.03,10.69,9.37,15.59l.44.64c3.21,4.71,6.51,9.65,9.8,14.68,2.15,3.29,3.74,6.74,4.72,10.26,1.49,5.36.74,9.76-2.36,13.84-.13.17-.27.36-.42.56-1.07,1.44-2.55,3.42-5.03,4.93-.51.31-1.05.6-1.59.84l-2.1.96,2.56,9.69,2.3-.2c.38-.03.77-.05,1.17-.05.17,0,.35,0,.54.01h.04c.16.01.3.01.38.01h.47l1.67-.29c1.72-.3,3.49-.61,5.31-1.13,3.45-.98,6.59-2.44,9.33-4.32,4.92-3.38,8.24-8.01,9.87-13.76,1.53-5.4,1.68-11.09.47-17.4-.1-.53-.35-1.84-.35-1.84-.52-2.79-1.06-5.67-1.87-8.55-.91-3.21-1.94-6.4-2.93-9.48-.66-2.04-1.32-4.1-1.94-6.13l-.41-1.33c-1.36-4.46-2.76-9.05-3.93-13.57-.63-2.44-.89-5.08-1.05-7.1-.19-2.43.36-3.47.8-4.04.55-.72,1.41-1.49,3.63-1.71.41-.04.83-.09,1.25-.13,1.55-.16,3.16-.34,4.7-.34.08,0,.15,0,.23,0-.74,1.98-1.26,4.33-1.56,7.05-.25,2.28-.18,4.69.2,6.99.86,5.15,4.41,7.98,6.83,9.43-.27.13-.53.27-.79.42-4.36,2.48-5.74,7.03-3.52,11.59,1.45,2.97,3.65,5.04,5.59,6.75.84.74,1.67,1.48,2.51,2.23,1.06.95,2.15,1.93,3.27,2.9.15.13.3.26.33.31.03.05.06.14.07.28-1.41,3.67-3.01,8.43,1.63,10.76l1.14.57,1.32.02c2.78,0,4.24-1.79,5.11-2.85.53-.64,1.18-1.44,2.17-2.32.36-.32.63-.51.99-.76.42-.29.87-.61,1.38-1.05,2.57-2.24,4.74-4.91,6.47-7.95,1.72-3.02,3.11-6.13,4.44-9.15l.21-.47c.05-.11.14-.27.23-.44.79-1.45,2.42-4.45.97-7.92-.28-.67-.69-1.35-1.21-2.01,0,0-.01-.02-.02-.03,4.04-1.87,7.06-4.61,9.18-8.3l.31-.54c1.25-2.16,2.66-4.61,3.3-7.7,1.04-5.04-.38-9.89-4-13.64-.7-.73-1.43-1.4-2.17-2.02,1.5-.32,2.9-.82,4.22-1.49l.21-.1c5.28-2.63,7.33-4.77,7.33-7.61v-4.41l-4.3-.95c-6.49-1.43-7.92-1.75-8.23-1.82-6.66-1.79-12.32-5.45-16.07-7.88-1.62-1.05-2.89-1.87-4.05-2.46-.75-.38-1.51-.76-2.26-1.13-.38-1.7-.79-3.39-1.34-5.11-.6-1.88-2.01-3.64-3.76-4.71-3.37-2.05-6.7-3.99-9.63-5.69.01-.76.02-1.54-.02-2.36-.21-4.77-1.13-9.51-2.73-14.1-2.03-5.84-5.11-11.12-9.16-15.69-1.15-1.3-4.65-5.26-12.78-10.22-3.75-2.29-7.58-4.23-11.04-5.61,3.64-.85,11.96-2.46,22.75-2.46.78,0,1.58,0,2.39.03,6.11.13,12.03.83,17.6,2.06,6.46,1.43,12.29,3.27,17.83,5.65,5.46,2.34,10.64,5.1,15.41,8.2,6.81,4.44,13.17,9.87,18.9,16.15,5.03,5.51,9.24,11.3,12.51,17.21,2.14,3.87,4.04,8.07,5.89,12.14,1.76,3.89,3.17,8.21,4.45,13.62,1.28,5.45,2.15,11.25,2.58,17.25.5,7.06.07,14.49-1.33,22.73-1.13,6.67-3.01,13.29-5.59,19.66-2.08,5.15-4.58,10.12-7.44,14.77-3.17,5.16-6.81,10.02-10.83,14.43-3.85,4.24-7.92,8.03-12.08,11.29-4.66,3.64-9.61,6.86-14.7,9.56-5.74,3.04-11.11,5.3-16.42,6.9-3.49,1.05-7.25,1.84-10.89,2.61-.82.17-1.63.34-2.44.52-4.43.95-9.28,1.39-15.26,1.39ZM73.99,13.88c1.28-.45,2.47-.84,3.56-1.19l-.41,1.13c-.44-.03-.88-.05-1.32-.05h-.19c-.61,0-1.16.05-1.64.11Z"/>
      <path class="cls-55" d="M121.59,82.61c-.08.14-3.23-1.58-3.38-1.34-.1.17,1.27,1.07,1.17,1.25-.11.19-1.78-.8-4.03-1.68-2.88-1.13-5.78-2.23-8.67-3.35-.34-.13-.67-.29-1.01-.44-.54.03-1.09.06-1.63.08.53-.15,1.31-.4,2.22-.81.35-.16.47-.27.7-.34,1.52-.43,3.07-.77,4.6-1.16.58-.15,1.18-.28,1.73-.51.76-.32,1.45-.69.91-1.77-.27-.53.05-.92.64-.75,1.33.38,2.67.77,3.94,1.31.88.38.89,1.01.2,1.69-1.75,1.71-1.86,2.81-.31,4.75.72.91,1.63,1.67,1.45,1.94-.02.02,1.54,1,1.48,1.1Z"/>
      <path class="cls-56" d="M113.47,77.16c.28-.09.57-.19.86-.31.14-.06.33-.14.54-.24-.05.36-.06.72-.02,1.09-.46-.18-.93-.36-1.39-.54Z"/>
    </g>
  </g>
</svg>